# xmcd CD database file
#
# Track frame offsets:
#	150
#	20622
#	38432
#	59322
#	74230
#	95534
#	116215
#	135860
#	149629
#	170979
#	193650
#	218845
#	238023
#
# Disc length: 3363 seconds
#
# Revision: 0
# Processed by: cddbd v1.5.2PL0 Copyright (c) Steve Scherf et al.
# Submitted via: CDex 1.70beta2
#
DISCID=ca0d210d
DTITLE=Andrea Padova - Landscape in motion
DYEAR=2006
DGENRE=Jazz
TTITLE0=Across the borderline (to Bruce Springsteen)
TTITLE1=The woman being away
TTITLE2=Highways (to Nick Drake)
TTITLE3=Constance
TTITLE4=Landscape in motion
TTITLE5=A jazzman, a friend
TTITLE6=Empty landscape
TTITLE7=The dancing tarte
TTITLE8=Endless landscape
TTITLE9=The thinker
TTITLE10=The snow asks the time to stop
TTITLE11=Some aspects of me
TTITLE12=Aloneness (to Bill Evans)
EXTD=YEAR: 2006
EXTT0=
EXTT1=
EXTT2=
EXTT3=
EXTT4=
EXTT5=
EXTT6=
EXTT7=
EXTT8=
EXTT9=
EXTT10=
EXTT11=
EXTT12=
PLAYORDER=
